<?xml version="1.0" standalone="no"?>
<!DOCTYPE svg PUBLIC "-//W3C//DTD SVG 20010904//EN"
 "http://www.w3.org/TR/2001/REC-SVG-20010904/DTD/svg10.dtd">
<svg version="1.0" xmlns="http://www.w3.org/2000/svg"
 width="512.000000pt" height="512.000000pt" viewBox="0 0 512.000000 512.000000"
 preserveAspectRatio="xMidYMid meet">

<g transform="translate(0.000000,512.000000) scale(0.100000,-0.100000)"
fill="#000000" stroke="none">
<path d="M2780 5063 c-48 -7 -145 -46 -185 -73 -65 -45 -134 -126 -168 -198
-28 -59 -32 -79 -35 -172 -4 -118 13 -184 69 -271 91 -143 236 -215 418 -207
82 3 106 8 164 35 188 89 302 300 269 496 -44 254 -283 430 -532 390z"/>
<path d="M1755 4151 c-134 -6 -144 -8 -210 -40 -90 -44 -162 -116 -206 -206
l-34 -70 -3 -460 c-2 -253 0 -470 3 -482 6 -26 59 -89 86 -104 11 -5 80 -21
155 -34 75 -13 138 -26 140 -28 2 -2 -90 -266 -206 -586 -200 -557 -212 -586
-256 -638 -26 -30 -175 -202 -332 -381 -156 -180 -291 -341 -298 -359 -19 -45
-17 -82 6 -128 11 -21 19 -39 17 -39 -1 -1 -42 -22 -92 -47 -49 -26 -135 -61
-190 -79 -131 -43 -161 -59 -217 -117 -44 -45 -49 -56 -81 -173 l-34 -125 101
-8 c171 -13 254 0 668 109 309 81 418 123 559 214 104 67 165 81 394 90 222 8
218 7 455 106 130 54 141 55 430 39 212 -11 268 6 580 185 74 42 169 90 210
105 153 57 212 101 259 194 29 55 61 77 144 96 40 8 113 29 162 45 107 34 188
50 264 50 82 1 124 25 236 139 55 57 117 111 137 122 22 11 73 22 131 27 120
11 150 29 276 156 l93 95 -28 88 c-25 75 -33 88 -57 96 -22 7 -38 4 -75 -16
-51 -27 -200 -81 -266 -98 -23 -5 -129 -14 -236 -19 -140 -6 -210 -13 -248
-26 -77 -25 -143 -88 -177 -168 -23 -55 -34 -68 -74 -89 -25 -14 -86 -37 -136
-52 -87 -26 -184 -73 -389 -188 -55 -31 -101 -55 -102 -54 -1 1 22 385 53 852
35 542 58 851 65 854 25 9 92 78 105 108 17 42 17 115 -1 156 -7 18 -33 50
-56 70 l-43 36 7 63 c5 41 14 70 27 84 16 17 21 43 28 140 11 165 4 180 -96
190 -103 11 -117 -10 -127 -183 -5 -99 -4 -104 20 -132 23 -27 24 -36 18 -89
l-6 -59 -176 -56 c-97 -31 -178 -54 -181 -52 -2 3 28 90 68 195 55 148 71 202
71 243 0 70 -39 149 -89 182 -20 14 -182 79 -359 145 l-323 120 -212 -2 c-117
-1 -275 -4 -352 -7z m351 -199 c-4 -10 -21 -63 -40 -117 l-34 -100 -1 118 -1
117 41 0 c34 0 39 -3 35 -18z m1184 -1019 c0 -35 -100 -1569 -106 -1620 l-5
-53 -147 0 c-85 -1 -174 -6 -210 -14 -54 -12 -62 -12 -58 0 3 7 48 159 101
336 137 465 137 466 -70 752 l-131 181 45 120 46 119 255 97 c140 53 261 97
268 98 6 1 12 -7 12 -16z m-947 -920 l87 -101 -80 -383 c-44 -211 -80 -399
-80 -417 0 -18 7 -47 16 -63 8 -17 14 -32 12 -34 -12 -12 -172 -35 -240 -35
-134 0 -396 -19 -492 -36 -107 -18 -173 -50 -281 -136 -170 -136 -160 -110 25
68 102 98 235 228 295 288 l110 111 170 355 c93 195 193 406 224 469 l54 115
46 -50 c25 -28 85 -96 134 -151z"/>
</g>
</svg>
